<?xml version="1.0" encoding="utf-8"?>
<!-- Generator: Adobe Illustrator 16.0.3, SVG Export Plug-In . SVG Version: 6.00 Build 0)  -->
<!DOCTYPE svg PUBLIC "-//W3C//DTD SVG 1.1//EN" "http://www.w3.org/Graphics/SVG/1.1/DTD/svg11.dtd">
<svg version="1.1" id="图层_1" xmlns="http://www.w3.org/2000/svg" xmlns:xlink="http://www.w3.org/1999/xlink" x="0px" y="0px"
	 width="30px" height="30px" viewBox="0 0 30 30" enable-background="new 0 0 30 30" xml:space="preserve">
<g>
	<path fill="#6D6E70" d="M4.933,19.7c-0.48,0-0.871-0.396-0.871-0.885V2.978c0-0.488,0.391-0.885,0.871-0.885h11.35
		c0.481,0,0.872,0.397,0.872,0.885V6.27h2.06V2.978C19.214,1.336,17.899,0,16.282,0H4.933C3.316,0,2,1.336,2,2.978v15.837
		c0,1.642,1.316,2.977,2.933,2.977h3.705V19.7H4.933z"/>
	<path fill="#6D6E70" d="M24.891,29.864H13.54c-1.616,0-2.932-1.335-2.932-2.978V11.05c0-1.642,1.316-2.978,2.932-2.978h11.351
		c1.617,0,2.932,1.336,2.932,2.978v15.836C27.822,28.529,26.508,29.864,24.891,29.864z M13.54,10.165
		c-0.48,0-0.871,0.397-0.871,0.885v15.836c0,0.489,0.391,0.886,0.871,0.886h11.351c0.481,0,0.87-0.396,0.87-0.886V11.05
		c0-0.488-0.389-0.885-0.87-0.885H13.54z"/>
</g>
</svg>
