<?xml version="1.0" encoding="utf-8"?>
<!-- Generator: Adobe Illustrator 16.0.3, SVG Export Plug-In . SVG Version: 6.00 Build 0)  -->
<!DOCTYPE svg PUBLIC "-//W3C//DTD SVG 1.1//EN" "http://www.w3.org/Graphics/SVG/1.1/DTD/svg11.dtd">
<svg version="1.1" id="图层_1" xmlns="http://www.w3.org/2000/svg" xmlns:xlink="http://www.w3.org/1999/xlink" x="0px" y="0px"
	 width="30px" height="30px" viewBox="0 0 30 30" enable-background="new 0 0 30 30" xml:space="preserve">
<g>
	<g>
		<path fill="#6D6E70" d="M14.874,0.047c-1.415-0.13-2.667,0.901-2.795,2.301l-1.46,15.962c-0.128,1.402,0.917,2.643,2.332,2.77
			l0.214,0.023l1.922-21.038L14.874,0.047z"/>
		<path fill="#6D6E70" d="M15.034,20.613l12.095-10.518c1.063-0.924,1.167-2.543,0.233-3.615l-0.139-0.163L11.282,20.18l0.142,0.16
			C12.355,21.412,13.973,21.533,15.034,20.613z"/>
	</g>
	<g>
		<path fill="#6D6E70" d="M4.668,25.117c-2.519-1.371-3.454-4.531-2.084-7.053c1.369-2.518,4.532-3.452,7.051-2.083
			c2.519,1.371,3.454,4.531,2.084,7.05S7.188,26.486,4.668,25.117z M8.88,17.369c-1.754-0.953-3.955-0.303-4.908,1.451
			c-0.954,1.754-0.302,3.957,1.452,4.91c1.753,0.953,3.955,0.303,4.908-1.453C11.285,20.525,10.634,18.322,8.88,17.369z"/>
		<path fill="#6D6E70" d="M12.437,29.34c-2.519-1.369-3.454-4.533-2.084-7.051c1.368-2.518,4.532-3.453,7.052-2.084
			c2.517,1.367,3.452,4.531,2.083,7.051C18.118,29.773,14.955,30.707,12.437,29.34z M16.649,21.592
			c-1.755-0.953-3.957-0.303-4.91,1.451c-0.953,1.754-0.302,3.955,1.453,4.91c1.753,0.953,3.956,0.299,4.909-1.453
			C19.054,24.746,18.401,22.545,16.649,21.592z"/>
	</g>
</g>
</svg>
