<?xml version="1.0" encoding="utf-8"?>
<!-- Generator: Adobe Illustrator 16.0.3, SVG Export Plug-In . SVG Version: 6.00 Build 0)  -->
<!DOCTYPE svg PUBLIC "-//W3C//DTD SVG 1.1//EN" "http://www.w3.org/Graphics/SVG/1.1/DTD/svg11.dtd">
<svg version="1.1" id="图层_1" xmlns="http://www.w3.org/2000/svg" xmlns:xlink="http://www.w3.org/1999/xlink" x="0px" y="0px"
	 width="30px" height="30px" viewBox="0 0 30 30" enable-background="new 0 0 30 30" xml:space="preserve">
<path fill="#6D6E70" d="M19.146,13.735c5.216,0.651,8.876,2.933,8.876,7.216c0,3.259-1.806,5.54-4.362,6.936
	c-2.507,1.397-6.167,2.003-10.027,2.003H2v-1.535c3.609-0.281,3.961-0.698,3.961-4.518V6.006c0-3.771-0.301-4.19-3.711-4.469V0
	h13.438c3.709,0,6.016,0.466,7.871,1.629c1.654,1.071,2.757,2.887,2.757,5.122c0,4.237-3.76,6.191-7.171,6.797V13.735z
	 M13.38,13.176c4.363,0,6.219-1.723,6.219-5.633c0-4.19-2.508-5.773-4.964-5.773c-1.054,0-1.604,0.233-1.906,0.513
	c-0.35,0.278-0.5,0.977-0.5,2.141v8.752H13.38z M12.229,23.837c0,3.212,0.803,4.19,3.209,4.19c2.606-0.046,5.513-1.908,5.513-6.656
	c0-4.283-2.706-6.426-7.721-6.426h-1.001V23.837z"/>
</svg>
