<?xml version="1.0" encoding="utf-8"?>
<!-- Generator: Adobe Illustrator 16.0.3, SVG Export Plug-In . SVG Version: 6.00 Build 0)  -->
<!DOCTYPE svg PUBLIC "-//W3C//DTD SVG 1.1//EN" "http://www.w3.org/Graphics/SVG/1.1/DTD/svg11.dtd">
<svg version="1.1" id="图层_1" xmlns="http://www.w3.org/2000/svg" xmlns:xlink="http://www.w3.org/1999/xlink" x="0px" y="0px"
	 width="30px" height="30px" viewBox="0 0 30 30" enable-background="new 0 0 30 30" xml:space="preserve">
<g>
	<path fill="#6D6E70" d="M26.244,2.729l-0.332-0.298c-2.125-1.914-5.41-1.743-7.326,0.384l-4.698,5.218
		c0.925-0.087,1.856,0.077,2.714,0.486l3.725-4.136c1.051-1.166,2.854-1.261,4.018-0.21l0.332,0.298
		c1.168,1.05,1.262,2.853,0.211,4.019l-6.346,7.046c-1.049,1.166-2.851,1.262-4.017,0.211c-0.481-0.432-1.222-0.395-1.655,0.086
		c-0.433,0.482-0.394,1.222,0.087,1.655c2.124,1.915,5.411,1.742,7.325-0.383l6.346-7.049C28.541,7.93,28.369,4.644,26.244,2.729z"
		/>
	<path fill="#6D6E70" d="M3.756,26.048l0.332,0.299c2.125,1.914,5.411,1.742,7.326-0.384l4.697-5.218
		c-0.923,0.088-1.855-0.077-2.715-0.486l-3.723,4.137c-1.05,1.166-2.853,1.261-4.018,0.21l-0.331-0.298
		c-1.167-1.05-1.261-2.852-0.211-4.019l6.345-7.046c1.05-1.167,2.853-1.261,4.019-0.211c0.481,0.432,1.221,0.394,1.654-0.087
		c0.434-0.482,0.395-1.222-0.088-1.654c-2.125-1.915-5.411-1.743-7.326,0.383l-6.345,7.049C1.458,20.848,1.63,24.134,3.756,26.048z"
		/>
</g>
</svg>
