<?xml version="1.0" encoding="utf-8"?>
<!-- Generator: Adobe Illustrator 16.0.3, SVG Export Plug-In . SVG Version: 6.00 Build 0)  -->
<!DOCTYPE svg PUBLIC "-//W3C//DTD SVG 1.1//EN" "http://www.w3.org/Graphics/SVG/1.1/DTD/svg11.dtd">
<svg version="1.1" id="图层_1" xmlns="http://www.w3.org/2000/svg" xmlns:xlink="http://www.w3.org/1999/xlink" x="0px" y="0px"
	 width="30px" height="30px" viewBox="0 0 30 30" enable-background="new 0 0 30 30" xml:space="preserve">
<path d="M23.5,3.519h-2.432c0.037,0.104,0.08,0.208,0.08,0.323v1.996c0,0.029-0.02,0.054-0.021,0.083H23.5
	c0.799,0,1.45,0.539,1.45,1.201v19.411c0,0.662-0.651,1.201-1.45,1.201H6.352c-0.799,0-1.45-0.539-1.45-1.201V7.121
	c0-0.662,0.651-1.201,1.45-1.201h2.341c-0.002-0.029-0.02-0.053-0.02-0.083V3.842c0-0.114,0.042-0.218,0.079-0.323h-2.4
	C3.952,3.519,2,5.134,2,7.121v19.411c0,1.987,1.952,3.604,4.352,3.604H23.5c2.398,0,4.352-1.616,4.352-3.604V7.121
	C27.852,5.134,25.898,3.519,23.5,3.519z"/>
<path d="M19.697,2.641h-1.618l0,0C18.079,1.182,16.65,0,14.886,0c-1.763,0-3.19,1.182-3.19,2.641l0,0h-1.572
	c-0.802,0-1.451,0.537-1.451,1.201v1.996c0,0.663,0.648,1.2,1.451,1.2h9.574c0.801,0,1.45-0.537,1.45-1.2V3.842
	C21.148,3.178,20.498,2.641,19.697,2.641z M19.697,5.837h-9.574V3.841h1.573c0.801,0,1.45-0.538,1.45-1.201
	c0-0.794,0.781-1.44,1.74-1.44c0.96,0,1.743,0.646,1.743,1.44c0,0.663,0.648,1.201,1.45,1.201h1.618V5.837z"/>
<rect x="8" y="10" width="14" height="2"/>
<rect x="8" y="14" width="14" height="2"/>
<rect x="8" y="18" width="14" height="2"/>
<rect x="8" y="22" width="14" height="2"/>
</svg>
