<?xml version="1.0" encoding="utf-8"?>
<!-- Generator: Adobe Illustrator 16.0.3, SVG Export Plug-In . SVG Version: 6.00 Build 0)  -->
<!DOCTYPE svg PUBLIC "-//W3C//DTD SVG 1.1//EN" "http://www.w3.org/Graphics/SVG/1.1/DTD/svg11.dtd">
<svg version="1.1" id="Layer_1" xmlns="http://www.w3.org/2000/svg" xmlns:xlink="http://www.w3.org/1999/xlink" x="0px" y="0px"
	 width="30px" height="30px" viewBox="24 24 30 30" enable-background="new 24 24 30 30" xml:space="preserve">
<path d="M29.217,27.478c0.959,0,1.739-0.781,1.739-1.74c0-0.958-0.78-1.739-1.739-1.739c-0.958,0-1.739,0.78-1.739,1.739
	C27.478,26.697,28.258,27.478,29.217,27.478z M29.217,29.217c-2.882,0-5.217,2.335-5.217,5.217c0,2.272,1.454,4.198,3.479,4.915
	v13.058c0,0.959,0.778,1.739,1.739,1.739c0.961,0,1.739-0.78,1.739-1.739V39.349c2.025-0.716,3.478-2.643,3.478-4.915
	C34.434,31.552,32.099,29.217,29.217,29.217z M29.217,37.912c-1.918,0-3.479-1.56-3.479-3.478c0-1.917,1.561-3.478,3.479-3.478
	s3.479,1.561,3.479,3.478C32.695,36.352,31.135,37.912,29.217,37.912z M48.927,29.217c-2.882,0-5.216,2.335-5.216,5.217
	c0,2.272,1.452,4.198,3.478,4.915v13.058c0,0.959,0.778,1.739,1.738,1.739c0.961,0,1.741-0.78,1.741-1.739V39.349
	c2.024-0.716,3.478-2.643,3.478-4.915C54.146,31.552,51.809,29.217,48.927,29.217z M48.927,37.912c-1.917,0-3.478-1.56-3.478-3.478
	c0-1.917,1.561-3.478,3.478-3.478c1.919,0,3.479,1.561,3.479,3.478C52.406,36.352,50.846,37.912,48.927,37.912z M48.927,27.478
	c0.959,0,1.741-0.781,1.741-1.74c0-0.958-0.782-1.739-1.741-1.739c-0.958,0-1.738,0.78-1.738,1.739
	C47.188,26.697,47.969,27.478,48.927,27.478z M40.812,38.796V25.738c0-0.96-0.78-1.739-1.739-1.739c-0.96,0-1.74,0.778-1.74,1.739
	v13.058c-2.024,0.716-3.478,2.644-3.478,4.914c0,2.882,2.335,5.217,5.217,5.217c2.883,0,5.217-2.335,5.217-5.217
	C44.289,41.439,42.836,39.512,40.812,38.796z M39.072,47.188c-1.918,0-3.479-1.561-3.479-3.479s1.561-3.479,3.479-3.479
	c1.917,0,3.479,1.561,3.479,3.479S40.989,47.188,39.072,47.188z M39.072,50.668c-0.958,0-1.74,0.779-1.74,1.738
	c0,0.957,0.781,1.739,1.74,1.739c0.958,0,1.739-0.782,1.739-1.739C40.812,51.447,40.03,50.668,39.072,50.668z"/>
</svg>
